Coordinates
version=1
nRows=11
nColumns=40
inDegrees=yes

Units are S.I. units (second, meters, Newtons, ...)
If the header above contains a line with 'inDegrees', this indicates whether rotational values are in degrees (yes) or radians (no).

endheader
time	pelvis_tilt	pelvis_list	pelvis_rotation	pelvis_tx	pelvis_ty	pelvis_tz	hip_flexion_r	hip_adduction_r	hip_rotation_r	knee_angle_r	knee_angle_r_beta	ankle_angle_r	subtalar_angle_r	mtp_angle_r	hip_flexion_l	hip_adduction_l	hip_rotation_l	knee_angle_l	knee_angle_l_beta	ankle_angle_l	subtalar_angle_l	mtp_angle_l	lumbar_extension	lumbar_bending	lumbar_rotation	arm_flex_r	arm_add_r	arm_rot_r	elbow_flex_r	pro_sup_r	wrist_flex_r	wrist_dev_r	arm_flex_l	arm_add_l	arm_rot_l	elbow_flex_l	pro_sup_l	wrist_flex_l	wrist_dev_l
      3.70000000	    -19.96783409	      1.86844750	     -4.70074469	     -0.32892688	      0.88624375	     -1.05094583	     17.34923215	     -9.09130663	     -8.52529441	     87.59931701	      1.52889650	    -20.57697067	      0.00000000	      0.00000000	     55.41356009	     -0.26700205	    -10.76249466	     64.96095292	      1.13378251	     19.59214793	      0.00000000	      0.00000000	     -4.05294192	     -4.21252258	      4.62713443	     89.61730743	    -19.17074593	     35.33321463	     50.82770180	     84.69375887	      0.00000000	      0.00000000	     89.81456844	    -20.25398471	     37.89360726	     45.87593586	     83.75397037	      0.00000000	      0.00000000
      3.70500000	    -20.00736685	      1.85528691	     -4.68229340	     -0.32900480	      0.88528634	     -1.05098034	     17.38931895	     -9.06723512	     -8.51863657	     87.63899319	      1.52958898	    -20.61593118	      0.00000000	      0.00000000	     55.57537876	     -0.25348936	    -10.68264424	     65.19301631	      1.13783278	     19.69112569	      0.00000000	      0.00000000	     -4.07405128	     -4.19268972	      4.63223337	     89.61798368	    -19.23023134	     35.56543011	     50.95172180	     83.08151524	      0.00000000	      0.00000000	     89.81809161	    -20.23015514	     38.08555287	     45.89652036	     82.17379794	      0.00000000	      0.00000000
      3.71000000	    -20.07813161	      1.91695023	     -4.68928188	     -0.32918646	      0.88423565	     -1.05094972	     17.48027980	     -9.10251510	     -8.47954489	     87.70618193	      1.53076165	    -20.58217437	      0.00000000	      0.00000000	     55.75529555	     -0.23052655	    -10.72470432	     65.37660824	      1.14103707	     19.83625873	      0.00000000	      0.00000000	     -4.06233531	     -4.25885816	      4.58914245	     89.62102424	    -19.10745063	     35.14519030	     50.84790694	     84.82127047	      0.00000000	      0.00000000	     89.81811182	    -20.25418095	     37.68580174	     45.84505146	     83.95832100	      0.00000000	      0.00000000
      3.71500000	    -20.13453545	      1.91203034	     -4.65018614	     -0.32929808	      0.88322809	     -1.05097592	     17.51997734	     -9.09356485	     -8.53275549	     87.74010296	      1.53135368	    -20.53693633	      0.00000000	      0.00000000	     55.93292906	     -0.21537365	    -10.67817786	     65.58537599	      1.14468075	     19.94280177	      0.00000000	      0.00000000	     -4.06538650	     -4.25652987	      4.58511640	     89.62268629	    -19.14929644	     35.10897675	     50.87305003	     84.81109424	      0.00000000	      0.00000000	     89.81863734	    -20.17570336	     37.56696552	     45.82284714	     84.05595824	      0.00000000	      0.00000000
      3.72000000	    -20.12103773	      2.03713071	     -4.62739979	     -0.32918102	      0.88226697	     -1.05121007	     17.47894431	     -9.29846876	     -8.55029582	     87.77961987	      1.53204338	    -20.56330511	      0.00000000	      0.00000000	     55.99170087	     -0.07939530	    -10.73217558	     65.74140349	      1.14740395	     20.14489576	      0.00000000	      0.00000000	     -4.11753376	     -4.38574376	      4.56449220	     89.61590804	    -19.06449843	     35.05289660	     50.77325789	     82.95460874	      0.00000000	      0.00000000	     89.82075141	    -20.08806461	     37.60188859	     45.67649220	     82.22454771	      0.00000000	      0.00000000
      3.72500000	    -20.26620558	      2.01236077	     -4.64868380	     -0.32942928	      0.88111021	     -1.05109907	     17.67671017	     -9.18758820	     -8.47874122	     87.88223863	      1.53383442	    -20.53926676	      0.00000000	      0.00000000	     56.28691261	     -0.15561853	    -10.72754549	     65.99239181	      1.15178452	     20.15202727	      0.00000000	      0.00000000	     -4.03989999	     -4.35058248	      4.56180107	     89.63249393	    -19.09007500	     34.93104942	     50.87046760	     84.84319917	      0.00000000	      0.00000000	     89.82157658	    -20.18178122	     37.41430570	     45.83261141	     84.01705756	      0.00000000	      0.00000000
      3.73000000	    -20.31576750	      1.93450747	     -4.56078121	     -0.32958618	      0.88016489	     -1.05111111	     17.68806365	     -9.07515201	     -8.55149120	     87.89313598	      1.53402461	    -20.54250485	      0.00000000	      0.00000000	     56.46036623	     -0.15775829	    -10.61351002	     66.20447435	      1.15548606	     20.23541466	      0.00000000	      0.00000000	     -4.08202073	     -4.26397018	      4.47252447	     89.63746785	    -19.03670413	     34.76539339	     50.88323727	     84.77399356	      0.00000000	      0.00000000	     89.82368987	    -20.28699176	     37.47459138	     46.00583345	     83.95333355	      0.00000000	      0.00000000
      3.73500000	    -20.38764094	      2.01734649	     -4.56626820	     -0.32959890	      0.87909220	     -1.05118825	     17.78577303	     -9.11448673	     -8.43458144	     87.95176401	      1.53504786	    -20.61916632	      0.00000000	      0.00000000	     56.63943415	     -0.09582843	    -10.64788564	     66.40267490	      1.15894531	     20.34177189	      0.00000000	      0.00000000	     -4.04607397	     -4.35674440	      4.48251655	     89.64588150	    -19.16247415	     35.03795056	     51.05135845	     83.86316214	      0.00000000	      0.00000000	     89.82520856	    -20.29839867	     37.63374863	     46.10266501	     82.99910896	      0.00000000	      0.00000000
      3.74000000	    -20.38588026	      2.13678894	     -4.52173679	     -0.32968720	      0.87809342	     -1.05134292	     17.78463806	     -9.33996970	     -8.54240290	     88.05927104	      1.53692422	    -20.56634415	      0.00000000	      0.00000000	     56.74612561	      0.03619963	    -10.69487363	     66.60683463	      1.16250857	     20.61378549	      0.00000000	      0.00000000	     -4.09055759	     -4.49068620	      4.43888065	     89.62788716	    -18.95712695	     34.74825859	     50.83490865	     81.61244022	      0.00000000	      0.00000000	     89.82951835	    -19.98364631	     37.36278249	     45.65585490	     80.81388673	      0.00000000	      0.00000000
      3.74500000	    -20.48633584	      2.02393488	     -4.58075426	     -0.32984797	      0.87702227	     -1.05109091	     17.90011521	     -9.07911544	     -8.43962714	     88.11056076	      1.53781939	    -20.46531265	      0.00000000	      0.00000000	     56.96305313	     -0.16370157	    -10.70970393	     66.81701060	      1.16617683	     20.60287859	      0.00000000	      0.00000000	     -4.07237931	     -4.36951377	      4.48814770	     89.65205077	    -18.96954435	     34.52546095	     50.92417086	     84.80760052	      0.00000000	      0.00000000	     89.82742855	    -20.09431980	     36.93584859	     45.93217532	     83.86502545	      0.00000000	      0.00000000
      3.75000000	    -20.56841939	      1.99313203	     -4.49152711	     -0.33003367	      0.87594830	     -1.05117397	     17.98640208	     -9.06588525	     -8.53731550	     88.20479169	      1.53946403	    -20.44463604	      0.00000000	      0.00000000	     57.19885362	     -0.11085779	    -10.57402900	     67.07825742	      1.17073645	     20.61773429	      0.00000000	      0.00000000	     -4.05818498	     -4.33227032	      4.45382304	     89.65453885	    -19.05384075	     34.44244985	     50.96695134	     84.90276843	      0.00000000	      0.00000000	     89.82897456	    -20.04984025	     36.90698762	     45.89516406	     84.08523768	      0.00000000	      0.00000000
